<?xml version="1.0" standalone="no"?>
<!DOCTYPE svg PUBLIC "-//W3C//DTD SVG 20010904//EN"
 "http://www.w3.org/TR/2001/REC-SVG-20010904/DTD/svg10.dtd">
<svg version="1.0" xmlns="http://www.w3.org/2000/svg"
 width="1280.000000pt" height="1046.000000pt" viewBox="0 0 1280.000000 1046.000000"
 preserveAspectRatio="xMidYMid meet">
<metadata>
Created by potrace 1.15, written by Peter Selinger 2001-2017
</metadata>
<g transform="translate(0.000000,1046.000000) scale(0.100000,-0.100000)"
fill="#000000" stroke="none">
<path d="M3265 10365 c24 -362 182 -739 433 -1036 108 -129 484 -522 606 -633
53 -49 95 -90 93 -92 -2 -2 -37 10 -78 28 -105 44 -247 83 -374 103 -150 24
-434 17 -588 -14 -422 -85 -854 -292 -1216 -580 -248 -198 -400 -382 -781
-946 -364 -539 -454 -656 -614 -798 -254 -226 -440 -328 -606 -331 -41 0 -88
3 -105 7 l-29 8 19 -21 c54 -60 200 -146 465 -275 80 -38 232 -117 339 -174
385 -207 565 -272 761 -272 101 0 174 18 289 72 184 86 367 227 630 484 283
277 432 449 585 673 61 90 63 88 46 -28 -21 -149 -30 -478 -20 -712 55 -1199
407 -2103 1199 -3078 340 -419 864 -947 1168 -1177 313 -238 679 -435 1248
-672 361 -151 421 -167 775 -206 161 -17 274 -46 352 -87 31 -16 100 -70 154
-118 208 -187 305 -217 664 -206 113 3 295 13 405 21 236 18 567 20 645 5 130
-25 263 -80 395 -164 85 -55 204 -112 265 -127 37 -9 111 -14 225 -13 187 1
303 19 452 72 l79 28 79 -23 c270 -77 525 -65 730 36 188 93 371 277 488 491
111 202 162 461 162 825 0 222 -10 353 -45 588 l-20 128 44 77 c196 340 264
898 180 1487 -44 311 -112 627 -284 1315 -74 297 -152 643 -209 925 -118 590
-163 763 -263 1015 -144 363 -324 618 -689 975 -508 496 -1283 1023 -1869
1270 -462 194 -1022 323 -1720 395 -800 83 -1324 11 -1897 -260 -271 -129
-513 -293 -780 -532 l-131 -117 -89 65 c-231 173 -494 436 -734 734 -189 234
-377 559 -487 839 l-29 75 -13 -40 c-18 -55 -37 -80 -70 -94 -23 -10 -35 -9
-64 5 -31 15 -117 94 -161 150 -15 19 -16 14 -10 -70z"/>
</g>
</svg>
